HIERARCHY
ROOT Hips
{
 OFFSET 0.000000 0.000000 0.000000
 CHANNELS 6 Xposition Yposition Zposition Yrotation Xrotation Zrotation
 JOINT Chest
 {
  OFFSET 0.000000 9.585900 0.002600
  CHANNELS 3 Yrotation Xrotation Zrotation
  JOINT Chest2
  {
   OFFSET 0.000000 9.601200 -0.005300
   CHANNELS 3 Yrotation Xrotation Zrotation
   JOINT Chest3
   {
    OFFSET 0.000000 9.561800 0.000000
    CHANNELS 3 Yrotation Xrotation Zrotation
    JOINT Chest4
    {
     OFFSET 0.000000 9.552100 0.000000
     CHANNELS 3 Yrotation Xrotation Zrotation
     JOINT Neck
     {
      OFFSET 0.000000 14.453000 0.000000
      CHANNELS 3 Yrotation Xrotation Zrotation
      JOINT Head
      {
       OFFSET 0.000000 8.936500 -0.011300
       CHANNELS 3 Yrotation Xrotation Zrotation
       End Site
       {
        OFFSET 0.000000 17.073600 -0.006000
       }
      }
     }
     JOINT RightCollar
     {
      OFFSET -2.921100 9.558500 0.000000
      CHANNELS 3 Yrotation Xrotation Zrotation
      JOINT RightShoulder
      {
       OFFSET -13.519700 0.000000 0.000000
       CHANNELS 3 Yrotation Xrotation Zrotation
       JOINT RightElbow
       {
        OFFSET 0.000000 -29.696600 0.000000
        CHANNELS 3 Yrotation Xrotation Zrotation
        JOINT RightWrist
        {
         OFFSET 0.000000 -24.004700 0.000000
         CHANNELS 3 Yrotation Xrotation Zrotation
         End Site
         {
          OFFSET 0.000000 -17.728500 0.000000
         }
        }
       }
      }
     }
     JOINT LeftCollar
     {
      OFFSET 2.921100 9.558500 0.000000
      CHANNELS 3 Yrotation Xrotation Zrotation
      JOINT LeftShoulder
      {
       OFFSET 13.519700 0.000000 0.000000
       CHANNELS 3 Yrotation Xrotation Zrotation
       JOINT LeftElbow
       {
        OFFSET 0.000000 -29.696600 0.000000
        CHANNELS 3 Yrotation Xrotation Zrotation
        JOINT LeftWrist
        {
         OFFSET 0.000000 -24.004700 0.000000
         CHANNELS 3 Yrotation Xrotation Zrotation
         End Site
         {
          OFFSET 0.000000 -17.728500 0.000000
         }
        }
       }
      }
     }
    }
   }
  }
 }
 JOINT RightHip
 {
  OFFSET -7.771700 -0.012900 -0.001300
  CHANNELS 3 Yrotation Xrotation Zrotation
  JOINT RightKnee
  {
   OFFSET 0.000000 -40.869800 0.001200
   CHANNELS 3 Yrotation Xrotation Zrotation
   JOINT RightAnkle
   {
    OFFSET 0.000000 -39.717900 0.002100
    CHANNELS 3 Yrotation Xrotation Zrotation
    JOINT RightToe
    {
     OFFSET 0.000000 -4.965400 11.033500
     CHANNELS 3 Yrotation Xrotation Zrotation
     End Site
     {
      OFFSET 0.000000 -1.423100 5.872300
     }
    }
   }
  }
 }
 JOINT LeftHip
 {
  OFFSET 7.771700 -0.012900 -0.001300
  CHANNELS 3 Yrotation Xrotation Zrotation
  JOINT LeftKnee
  {
   OFFSET 0.000000 -40.869800 0.001200
   CHANNELS 3 Yrotation Xrotation Zrotation
   JOINT LeftAnkle
   {
    OFFSET 0.000000 -39.717900 0.002100
    CHANNELS 3 Yrotation Xrotation Zrotation
    JOINT LeftToe
    {
     OFFSET 0.000000 -4.965400 11.033500
     CHANNELS 3 Yrotation Xrotation Zrotation
     End Site
     {
      OFFSET 0.000000 -1.423100 5.872300
     }
    }
   }
  }
 }
}
MOTION
Frames: 16
Frame Time: 0.008333
-46.893591 46.402393 11.082454 174.868874 -31.000834 -2.373635 -0.169904 17.927449 1.334720 -0.040987 1.984873 0.171016 -0.064749 3.292594 0.283060 -0.160012 15.678828 1.343816 0.103814 17.379206 -0.843873 0.435946 -3.515091 -1.587553 -0.489913 0.407238 -2.764015 4.871930 -5.549447 -16.312520 -56.815632 -69.695296 104.617625 1.583705 5.901443 -15.673529 -0.232640 -0.897915 2.101016 -0.734648 -1.581837 15.066706 118.238439 -78.048316 -153.774654 -6.255619 9.116084 1.607380 -4.200242 -56.580337 -6.582809 -174.056792 81.794732 -164.827563 -7.469553 -11.882937 -7.080872 0.003309 -0.094563 0.020132 2.227400 -58.300121 10.974798 -115.012523 81.551162 -119.026759 4.549289 -6.670977 5.945839 0.043368 0.191108 0.031921
-46.896480 46.402041 11.081020 174.878039 -31.003222 -2.379643 -0.179481 17.928652 1.330049 -0.041544 1.985282 0.172343 -0.064505 3.292274 0.284309 -0.175428 15.673948 1.335748 0.090085 17.385820 -0.842690 0.459066 -3.510425 -1.589740 -0.487981 0.412596 -2.759946 4.861057 -5.547615 -16.324976 -56.813401 -69.695919 104.621951 1.579814 5.894099 -15.658800 -0.227543 -0.894366 2.099835 -0.748109 -1.586315 15.057057 118.228592 -78.064018 -153.757224 -6.257265 9.121673 1.617970 -4.207666 -56.576831 -6.579344 -174.009968 81.792034 -164.785272 -7.469742 -11.881414 -7.074281 0.004487 -0.097531 0.019129 2.215907 -58.295945 10.981012 -114.987425 81.547605 -119.005873 4.547083 -6.673746 5.946309 0.049346 0.195027 0.033759
-46.897509 46.401778 11.080126 174.886926 -31.003777 -2.396001 -0.184267 17.928672 1.339170 -0.041569 1.985998 0.173777 -0.066384 3.291383 0.282650 -0.183431 15.670223 1.328712 0.095845 17.391782 -0.836978 0.456806 -3.504674 -1.586740 -0.498559 0.414474 -2.763351 4.868259 -5.545333 -16.322161 -56.791906 -69.695787 104.595963 1.580890 5.886904 -15.646324 -0.220371 -0.890250 2.104532 -0.768617 -1.594449 15.044403 118.202238 -78.079050 -153.726019 -6.255781 9.122976 1.614550 -4.230513 -56.573218 -6.558005 -173.963852 81.791270 -164.741141 -7.464289 -11.875711 -7.071805 0.004044 -0.102770 0.016341 2.184094 -58.295810 11.010213 -114.973091 81.542780 -118.997673 4.558604 -6.679182 5.944863 0.058137 0.199257 0.035622
-46.899024 46.402018 11.078698 174.884673 -31.008954 -2.403197 -0.179735 17.931974 1.344848 -0.042723 1.983943 0.170440 -0.067674 3.291044 0.281983 -0.187523 15.670010 1.324976 0.099993 17.397579 -0.830135 0.433318 -3.476747 -1.572563 -0.498689 0.420097 -2.758081 4.861932 -5.545383 -16.328059 -56.764297 -69.685739 104.569437 1.574984 5.893422 -15.666607 -0.226857 -0.893309 2.102670 -0.777958 -1.597892 15.042571 118.166804 -78.095736 -153.678546 -6.250465 9.133593 1.593226 -4.235765 -56.567059 -6.548306 -173.923157 81.789542 -164.700615 -7.450027 -11.864812 -7.075193 -0.001853 -0.109270 0.015047 2.164064 -58.288020 11.038067 -114.942360 81.535205 -118.973896 4.557406 -6.684260 5.942282 0.066871 0.203111 0.038871
-46.901153 46.402301 11.077567 174.883105 -31.012925 -2.407723 -0.183370 17.930535 1.334576 -0.042882 1.983280 0.169797 -0.066254 3.291804 0.284204 -0.181762 15.673433 1.331517 0.082331 17.405297 -0.833908 0.450121 -3.478185 -1.569040 -0.504737 0.423535 -2.756414 4.843244 -5.545906 -16.346914 -56.747670 -69.659540 104.570987 1.575459 5.890454 -15.666949 -0.243448 -0.898447 2.085200 -0.770832 -1.596254 15.059578 118.143513 -78.102674 -153.654090 -6.250489 9.137725 1.595668 -4.232592 -56.562717 -6.547783 -173.885532 81.788227 -164.657443 -7.453115 -11.851518 -7.075483 -0.000130 -0.121345 0.014561 2.149937 -58.282701 11.059283 -114.921313 81.529973 -118.957385 4.540106 -6.683755 5.942138 0.073552 0.204133 0.040137
-46.903682 46.402435 11.077117 174.880551 -31.013724 -2.410781 -0.183786 17.928800 1.331416 -0.041425 1.983655 0.171994 -0.065382 3.292914 0.284281 -0.181827 15.672772 1.329938 0.083833 17.408006 -0.830076 0.434225 -3.462497 -1.560088 -0.506998 0.425983 -2.753364 4.845214 -5.546796 -16.348058 -56.705435 -69.645127 104.521965 1.576234 5.887595 -15.665234 -0.249165 -0.898349 2.079265 -0.776057 -1.600865 15.066378 118.177302 -78.098474 -153.688827 -6.244527 9.156419 1.584184 -4.231256 -56.560970 -6.546857 -173.884948 81.789214 -164.654789 -7.448896 -11.841357 -7.074717 0.005917 -0.122927 0.010119 2.136043 -58.280923 11.075790 -114.892210 81.525146 -118.932013 4.529160 -6.681246 5.940602 0.071520 0.205181 0.038282
-46.906842 46.402692 11.076933 174.876874 -31.014384 -2.410987 -0.183656 17.927914 1.323924 -0.038465 1.984285 0.179362 -0.067775 3.289685 0.280766 -0.180610 15.671784 1.329706 0.078228 17.416703 -0.826599 0.422590 -3.446259 -1.551550 -0.509580 0.432192 -2.751951 4.836685 -5.547073 -16.348673 -56.678447 -69.635387 104.503840 1.571794 5.890495 -15.669762 -0.253220 -0.893628 2.075685 -0.789512 -1.608152 15.067780 118.172927 -78.109017 -153.669068 -6.248925 9.151052 1.543197 -4.226385 -56.558636 -6.548318 -173.864756 81.791597 -164.633545 -7.446248 -11.835674 -7.073141 0.006224 -0.121055 0.008047 2.134787 -58.278630 11.078338 -114.820732 81.511157 -118.863239 4.546528 -6.680307 5.939853 0.070991 0.205691 0.038865
-46.907828 46.402795 11.077903 174.859647 -31.011548 -2.419014 -0.165049 17.925017 1.330884 -0.041122 1.981440 0.180505 -0.065824 3.290057 0.281179 -0.170730 15.672389 1.332611 0.063592 17.427538 -0.829159 0.410930 -3.439916 -1.534994 -0.521478 0.437292 -2.752193 4.820034 -5.547095 -16.347984 -56.685177 -69.631036 104.533076 1.559776 5.895411 -15.683987 -0.266052 -0.890716 2.072337 -0.795370 -1.619184 15.071455 118.163105 -78.121555 -153.648924 -6.250277 9.144102 1.528582 -4.232147 -56.557647 -6.523399 -173.902521 81.801549 -164.665968 -7.447907 -11.826286 -7.076522 0.003534 -0.119104 0.006785 2.131265 -58.283131 11.097418 -114.818066 81.510346 -118.853607 4.556316 -6.681817 5.941949 0.065242 0.207169 0.032866
-46.910634 46.403281 11.078377 174.856609 -31.012530 -2.423961 -0.160368 17.926433 1.332384 -0.040622 1.983230 0.175359 -0.064712 3.289705 0.281197 -0.164809 15.671906 1.334096 0.056816 17.429806 -0.825809 0.396706 -3.431579 -1.523564 -0.539396 0.429235 -2.754045 4.824652 -5.540206 -16.337641 -56.667348 -69.620758 104.516652 1.565422 5.891267 -15.684223 -0.279922 -0.888500 2.070419 -0.798119 -1.631162 15.076723 118.164860 -78.129052 -153.648421 -6.252442 9.142935 1.526110 -4.234505 -56.554531 -6.521218 -173.942602 81.805866 -164.701235 -7.446528 -11.815092 -7.079152 -0.000189 -0.121944 0.005225 2.125348 -58.282140 11.106606 -114.808053 81.510157 -118.842755 4.555691 -6.681195 5.942445 0.067690 0.207747 0.032513
-46.913715 46.403687 11.079268 174.856898 -31.012348 -2.429162 -0.159084 17.926113 1.332351 -0.039890 1.982815 0.169930 -0.064700 3.289964 0.273743 -0.153786 15.670919 1.341733 0.051595 17.432746 -0.816107 0.382290 -3.422740 -1.517357 -0.549674 0.428859 -2.743039 4.826260 -5.538129 -16.336657 -56.637768 -69.612364 104.486109 1.570564 5.882950 -15.687528 -0.292597 -0.884391 2.077502 -0.804808 -1.638272 15.082349 118.177637 -78.125181 -153.653305 -6.251938 9.148661 1.527148 -4.245691 -56.552194 -6.515272 -173.992780 81.812292 -164.748693 -7.451025 -11.807603 -7.083404 -0.001225 -0.122361 0.004822 2.120187 -58.282176 11.107619 -114.795791 81.515980 -118.826631 4.560773 -6.678973 5.939561 0.069583 0.208466 0.032520
-46.916540 46.403926 11.080662 174.861159 -31.010411 -2.437324 -0.166463 17.925267 1.318958 -0.038976 1.983062 0.169591 -0.059147 3.289090 0.289472 -0.154479 15.673031 1.326777 0.053841 17.432466 -0.801481 0.368101 -3.415661 -1.511132 -0.557669 0.426760 -2.730514 4.825933 -5.532292 -16.335445 -56.638992 -69.607724 104.496277 1.571184 5.882231 -15.701728 -0.293518 -0.885699 2.092934 -0.806699 -1.644563 15.086328 118.200501 -78.121335 -153.679583 -6.247341 9.153851 1.531110 -4.259789 -56.551542 -6.507441 -174.034351 81.817567 -164.786419 -7.460245 -11.799220 -7.083936 0.002536 -0.124420 0.001849 2.109715 -58.284867 11.111719 -114.785381 81.522381 -118.812719 4.558380 -6.673716 5.938658 0.066445 0.208391 0.031378
-46.918140 46.403713 11.082986 174.851734 -31.004608 -2.444635 -0.157582 17.918941 1.322953 -0.037333 1.983651 0.171095 -0.060164 3.289401 0.287199 -0.150428 15.674141 1.323963 0.043871 17.435790 -0.803833 0.364998 -3.414100 -1.498103 -0.587442 0.428772 -2.727154 4.850252 -5.528998 -16.335557 -56.664093 -69.603296 104.520777 1.557202 5.869077 -15.709699 -0.298513 -0.881594 2.091526 -0.801142 -1.653511 15.095903 118.285342 -78.111429 -153.768737 -6.240268 9.162198 1.520035 -4.276598 -56.554084 -6.486026 -174.080439 81.828229 -164.827778 -7.461052 -11.792582 -7.095404 0.001975 -0.123339 0.004450 2.101237 -58.292686 11.119481 -114.817480 81.535724 -118.831274 4.557478 -6.671480 5.930291 0.069172 0.209155 0.028381
-46.918417 46.404344 11.083897 174.843802 -31.010094 -2.457768 -0.148546 17.923412 1.333451 -0.033963 1.984567 0.175424 -0.064995 3.289355 0.274619 -0.144242 15.673686 1.332450 0.041266 17.436627 -0.803157 0.357281 -3.410929 -1.494110 -0.589013 0.430207 -2.723880 4.838791 -5.521774 -16.337265 -56.704600 -69.593119 104.570232 1.565343 5.875447 -15.704433 -0.304651 -0.873741 2.091040 -0.791222 -1.657275 15.102031 118.315608 -78.106795 -153.799583 -6.245299 9.154260 1.513138 -4.307080 -56.544424 -6.448161 -174.074334 81.835219 -164.823333 -7.455544 -11.786429 -7.106034 0.003998 -0.123630 0.008752 2.082059 -58.288633 11.146544 -114.844013 81.541053 -118.855149 4.569158 -6.675429 5.929623 0.071107 0.210408 0.027204
-46.920208 46.404469 11.084974 174.839543 -31.012964 -2.461564 -0.144894 17.925716 1.336369 -0.036735 1.983957 0.171595 -0.061673 3.289711 0.278367 -0.143379 15.672538 1.332047 0.038260 17.438063 -0.805075 0.342262 -3.406893 -1.495475 -0.589379 0.432790 -2.724380 4.832491 -5.518623 -16.337886 -56.722560 -69.590077 104.595889 1.561035 5.871227 -15.710218 -0.315293 -0.865116 2.081604 -0.771359 -1.651675 15.109628 118.393534 -78.099708 -153.881579 -6.245085 9.134363 1.501957 -4.341433 -56.540752 -6.417830 -174.079699 81.839747 -164.841746 -7.446604 -11.783193 -7.114802 -0.004470 -0.119729 0.010811 2.085417 -58.288408 11.144382 -114.877396 81.546958 -118.881993 4.572704 -6.675455 5.930378 0.067541 0.209308 0.025695
-46.921527 46.404170 11.086337 174.835103 -31.013536 -2.465931 -0.140542 17.925749 1.340629 -0.037955 1.983168 0.169485 -0.059853 3.290058 0.280553 -0.141746 15.672665 1.333401 0.035558 17.439052 -0.808713 0.339053 -3.402072 -1.496767 -0.604399 0.438696 -2.726726 4.839239 -5.522234 -16.337020 -56.735063 -69.588715 104.614838 1.551918 5.846042 -15.715204 -0.318901 -0.862857 2.081055 -0.766408 -1.650964 15.110337 118.389991 -78.075078 -153.879150 -6.257456 9.143016 1.492050 -4.352638 -56.539008 -6.406824 -174.067050 81.843193 -164.826296 -7.435641 -11.777999 -7.126959 -0.000655 -0.118459 0.013666 2.082516 -58.289275 11.146310 -114.910187 81.553707 -118.905517 4.561741 -6.677955 5.930166 0.062534 0.211688 0.022410
-46.921935 46.403657 11.087695 174.831711 -31.013797 -2.474073 -0.135273 17.927820 1.335171 -0.037548 1.983294 0.169600 -0.058070 3.288593 0.289092 -0.140760 15.671448 1.333873 0.037643 17.440022 -0.803724 0.335211 -3.394609 -1.499926 -0.605520 0.440738 -2.719825 4.824505 -5.523038 -16.337054 -56.763491 -69.579578 104.648536 1.559277 5.854857 -15.705245 -0.321572 -0.860720 2.087171 -0.764984 -1.646575 15.110938 118.405047 -78.062002 -153.892936 -6.263145 9.144046 1.487937 -4.379009 -56.537607 -6.381036 -174.029524 81.846625 -164.791386 -7.424919 -11.773448 -7.136631 0.007737 -0.117136 0.014428 2.068340 -58.291996 11.158894 -114.949713 81.561142 -118.936344 4.552742 -6.676300 5.924483 0.061843 0.211394 0.021375
